<svg width="32" height="32" viewBox="0 0 32 32" fill="none" xmlns="http://www.w3.org/2000/svg">
<path d="M28.6062 6.33629L18.2513 0.584261C16.8504 -0.194754 15.1436 -0.194754 13.7427 0.584261L3.39076 6.33629C1.91491 7.15758 1 8.71259 1 10.4005V21.5965C1 23.2844 1.91491 24.8424 3.39076 25.6607L13.7457 31.4157C15.1466 32.1948 16.8534 32.1948 18.2543 31.4157L28.6092 25.6607C30.0851 24.8394 31 23.2844 31 21.5965V10.4005C31 8.71259 30.0851 7.15456 28.6092 6.33629H28.6062Z" fill="#36A4DE"/>
<path d="M16.1011 20.2582H12.039V16.1584L9 11.612V23H17.9345L16.1011 20.2582Z" fill="white"/>
<path d="M12.0405 13.9207C12.0405 13.9207 15.9562 19.8478 15.9396 19.8403C15.923 19.8327 16.0196 19.8403 16.0196 19.8403L19.9595 13.8603V23H23V9.9778C23 9.43759 22.5624 9 22.0222 9H19.6788L16 14.9196L12.3197 9H10.088C9.63528 9 9.24748 9.27614 9.083 9.66997L12.039 13.9192L12.0405 13.9207Z" fill="white"/>
</svg>
