<svg width="32" height="32" viewBox="0 0 32 32" fill="none" xmlns="http://www.w3.org/2000/svg">
<path d="M28.6062 6.33629L18.2513 0.584261C16.8504 -0.194754 15.1436 -0.194754 13.7427 0.584261L3.39076 6.33629C1.91491 7.15758 1 8.71259 1 10.4005V21.5965C1 23.2844 1.91491 24.8424 3.39076 25.6607L13.7457 31.4157C15.1466 32.1948 16.8534 32.1948 18.2543 31.4157L28.6092 25.6607C30.0851 24.8394 31 23.2844 31 21.5965V10.4005C31 8.71259 30.0851 7.15456 28.6092 6.33629H28.6062Z" fill="#00B6B3"/>
<path d="M19.2832 12.3564C19.2832 11.0615 20.3456 10 21.6416 10C22.9376 10 24 11.0615 24 12.3564V20.6436C24 21.9385 22.9376 23 21.6416 23C20.3456 23 19.2832 21.9385 19.2832 20.6436V12.3564ZM16 11.6338C17.3056 11.6338 18.3616 12.6921 18.3616 13.9934C18.3616 15.2946 17.3024 16.3529 16 16.3529C14.6976 16.3529 13.6384 15.2946 13.6384 13.9934C13.6384 12.6921 14.6976 11.6338 16 11.6338ZM8 12.3564C8 11.0615 9.0624 10 10.3584 10C11.6544 10 12.7168 11.0615 12.7168 12.3564V20.6436C12.7168 21.9385 11.6544 23 10.3584 23C9.0624 23 8 21.9385 8 20.6436V12.3564Z" fill="white"/>
</svg>
